<svg width="324" height="154" viewBox="0 0 324 154" fill="none" xmlns="http://www.w3.org/2000/svg">
<g filter="url(#filter0_d_8_49)">
<path d="M232.294 14.848C217.932 23.1243 207.446 36.7669 203.143 52.7746C198.84 68.7824 201.072 85.8439 209.348 100.206C217.624 114.568 231.267 125.054 247.275 129.357C263.282 133.66 280.344 131.428 294.706 123.152" stroke="#FE7027" stroke-width="5"/>
</g>
<circle cx="263.5" cy="69" r="49.5" stroke="url(#paint0_linear_8_49)"/>
<circle cx="263.5" cy="69" r="59.5" stroke="url(#paint1_linear_8_49)"/>
<path d="M287.629 77.3274L275.45 71.8695C274.898 71.6331 274.296 71.538 273.698 71.593C273.1 71.6479 272.525 71.851 272.026 72.1841C271.975 72.2166 271.927 72.2528 271.881 72.2924L265.516 77.7064C265.45 77.7424 265.377 77.7626 265.301 77.7653C265.226 77.7679 265.151 77.7531 265.083 77.7219C260.991 75.747 256.753 71.5344 254.77 67.4996C254.737 67.4322 254.72 67.3581 254.72 67.2831C254.72 67.208 254.737 67.1339 254.77 67.0665L260.203 60.6212C260.242 60.5735 260.278 60.5236 260.311 60.4716C260.639 59.9702 260.838 59.3949 260.888 58.7976C260.938 58.2003 260.839 57.5999 260.6 57.0505L255.18 44.892C254.873 44.1743 254.34 43.5758 253.664 43.1862C252.987 42.7967 252.202 42.6371 251.427 42.7316C248.058 43.1745 244.965 44.829 242.727 47.3859C240.489 49.9427 239.259 53.2271 239.266 56.6251C239.266 76.8118 255.688 93.2345 275.875 93.2345C279.273 93.241 282.557 92.0103 285.114 89.7724C287.67 87.5344 289.325 84.4422 289.769 81.0734C289.863 80.3019 289.705 79.5205 289.32 78.8456C288.934 78.1706 288.341 77.6382 287.629 77.3274ZM275.875 90.1407C257.395 90.1407 242.359 75.1051 242.359 56.6251C242.351 53.9797 243.306 51.4218 245.045 49.429C246.785 47.4363 249.191 46.1452 251.813 45.797H251.873C251.977 45.7989 252.077 45.8322 252.162 45.8925C252.247 45.9527 252.311 46.0372 252.347 46.1347L257.787 58.2802C257.818 58.3478 257.834 58.4212 257.834 58.4955C257.834 58.5698 257.818 58.6433 257.787 58.7108L252.344 65.1716C252.304 65.2177 252.267 65.2668 252.234 65.3185C251.893 65.8384 251.692 66.4374 251.651 67.0576C251.61 67.6777 251.73 68.298 251.999 68.8583C254.286 73.5402 259.004 78.222 263.737 80.5088C264.301 80.7763 264.924 80.8932 265.546 80.848C266.168 80.8028 266.768 80.5971 267.287 80.251C267.336 80.2175 267.385 80.1814 267.432 80.1427L273.794 74.7287C273.857 74.6949 273.927 74.6751 273.998 74.6707C274.069 74.6662 274.14 74.6772 274.207 74.7029L286.389 80.1608C286.488 80.2032 286.572 80.2757 286.628 80.3683C286.684 80.4608 286.709 80.5686 286.701 80.6764C286.354 83.2999 285.064 85.7076 283.072 87.4493C281.08 89.1911 278.521 90.1478 275.875 90.1407Z" fill="#E4E4E4"/>
<path d="M212.5 107.5L182 153.5H0" stroke="#FE7027"/>
<defs>
<filter id="filter0_d_8_49" x="185.9" y="0.0818844" width="122.654" height="146.518" filterUnits="userSpaceOnUse" color-interpolation-filters="sRGB">
<feFlood flood-opacity="0" result="BackgroundImageFix"/>
<feColorMatrix in="SourceAlpha" type="matrix" values="0 0 0 0 0 0 0 0 0 0 0 0 0 0 0 0 0 0 127 0" result="hardAlpha"/>
<feOffset/>
<feGaussianBlur stdDeviation="6.3"/>
<feComposite in2="hardAlpha" operator="out"/>
<feColorMatrix type="matrix" values="0 0 0 0 0.996078 0 0 0 0 0.439216 0 0 0 0 0.152941 0 0 0 0.35 0"/>
<feBlend mode="normal" in2="BackgroundImageFix" result="effect1_dropShadow_8_49"/>
<feBlend mode="normal" in="SourceGraphic" in2="effect1_dropShadow_8_49" result="shape"/>
</filter>
<linearGradient id="paint0_linear_8_49" x1="313.5" y1="63" x2="213.5" y2="74" gradientUnits="userSpaceOnUse">
<stop stop-color="#B4B4B4"/>
<stop offset="1" stop-color="white" stop-opacity="0"/>
</linearGradient>
<linearGradient id="paint1_linear_8_49" x1="299.5" y1="124" x2="234.5" y2="15" gradientUnits="userSpaceOnUse">
<stop stop-color="#FFA842" stop-opacity="0.28"/>
<stop offset="1" stop-color="#FFA842" stop-opacity="0"/>
</linearGradient>
</defs>
</svg>
